<svg data-v-01741338="" viewBox="0 0 133.2 101.4" xmlns="http://www.w3.org/2000/svg" class="h-36 w-36 mx-auto icon"><circle cx="66.45" cy="50.7" fill="#e0f2f3" r="50.7"></circle><path d="m1.25 76.6v5.3a1.23 1.23 0 0 0 1.3 1l54.1-.3a1.32 1.32 0 0 0 1.35 1.3h17.3a1.32 1.32 0 0 0 1.3-1.3l54.1.3c.7 0 1.3-.4 1.3-1v-5.3" fill="#d3d5db"></path><g stroke="#6acad1" stroke-miterlimit="10" stroke-width="2.5"><path d="m1.25 72.6v5.3a1.23 1.23 0 0 0 1.3 1l56.1-1.3v1a1.32 1.32 0 0 0 1.35 1.3h13.3a1.32 1.32 0 0 0 1.3-1.3v-1l56.1 1.3c.7 0 1.3-.4 1.3-1v-5.3" fill="#fff"></path><path d="m119.05 28.4a1.23 1.23 0 0 0 -1.3-1h-103.9c-.7 0-1.3.4-1.3 1l-11.3 44.2a1.23 1.23 0 0 0 1.3 1l56.1-1.3v1a1.32 1.32 0 0 0 1.35 1.3h13.3a1.32 1.32 0 0 0 1.3-1.3v-1l56.1 1.3c.7 0 1.3-.4 1.3-1z" fill="#e0f2f3"></path><path d="m65.45 68.8s-9.1-.5-18.7-.5-30.4 1.8-30.4 1.8a1.23 1.23 0 0 1 -1-1.3l12.5-36.2c0-.7.4-1.3 1-1.3 0 0 11.7-5.7 23.2-5.7s14.4 6.3 14.4 7v35a1.12 1.12 0 0 1 -1 1.2z" fill="#fff"></path><path d="m65.15 68.2a49.86 49.86 0 0 0 -21.3-4.5c-12.7 0-35.8 5.7-35.8 5.7a1.32 1.32 0 0 1 -1.3-1.3l9.1-36.2a1.32 1.32 0 0 1 1.3-1.3s15.3-7.4 30.4-7.4 18.9 8 18.9 8.7v35a1.32 1.32 0 0 1 -1.3 1.3zm2.3.6 49.2 1.3a1.23 1.23 0 0 0 1-1.3l-12.5-36.2c0-.7-.4-1.3-1-1.3 0 0-11.7-5.7-23.2-5.7s-14.4 6.3-14.4 7v35a1 1 0 0 0 .9 1.2z" fill="#fff"></path><path d="m67.75 68.2a57.43 57.43 0 0 1 21.3-3.8c12.7 0 35.8 5.1 35.8 5.1a1.32 1.32 0 0 0 1.3-1.3l-9.1-36.2a1.32 1.32 0 0 0 -1.3-1.3s-15.3-7.4-30.4-7.4-18.9 8-18.9 8.7v35a1.31 1.31 0 0 0 1.3 1.2z" fill="#fff"></path></g><ellipse cx="40.85" cy="48.9" fill="#d3d5db" rx="12.9" ry="4.9"></ellipse><ellipse cx="92.75" cy="49.9" fill="#d3d5db" rx="5.5" ry="2.3"></ellipse><circle cx="40.85" cy="34.6" fill="#083b54" r="15"></circle><circle cx="92.75" cy="36.7" fill="#f05135" r="7.5"></circle><path d="m102.45 33.2a30.48 30.48 0 0 0 -3.2-.2c.2.3.3.7.5 1a21.12 21.12 0 0 1 2.6.2c3 .4 3.7 1 3.7 1.2s-.6 1-3.5 1.8a53.38 53.38 0 0 1 -9.5 1.6c-8.5.7-13.3-.4-13.3-1.2 0-.5 1.9-1.5 5.7-2.4.1-.4.2-.7.3-1.1-3.7.8-7.1 1.9-7 3.5.2 1.8 4.8 2.3 9.2 2.3 1.9 0 3.7-.1 5.2-.2a55.93 55.93 0 0 0 9.7-1.6c2.9-.9 4.3-1.8 4.2-2.8s-1.6-1.7-4.6-2.1z" fill="#f59223"></path></svg>
